<svg width="28" height="28" viewBox="0 0 28 28" fill="none" xmlns="http://www.w3.org/2000/svg">
<path d="M11.7103 24.9658L14.4117 20.2867C14.2757 20.2955 14.1383 20.3 14 20.3C11.6252 20.3 9.55718 18.986 8.48358 17.0453L3.91243 9.1278C3.19963 10.6009 2.8 12.2538 2.8 14C2.8 19.4009 6.6229 23.9089 11.7103 24.9658ZM14.8256 25.17C20.6256 24.7474 25.2 19.9079 25.2 14C25.2 12.7777 25.0041 11.6011 24.6422 10.5H19.2391C19.9093 11.501 20.3 12.7049 20.3 14C20.3 15.1868 19.9718 16.2968 19.4013 17.2445L14.8256 25.17ZM17.0008 15.8025L17.0311 15.75C17.3295 15.2354 17.5 14.6376 17.5 14C17.5 12.067 15.933 10.5 14 10.5C12.067 10.5 10.5 12.067 10.5 14C10.5 14.6136 10.6579 15.1904 10.9353 15.6918L10.9689 15.75C11.5737 16.7962 12.7046 17.5 14 17.5C15.2737 17.5 16.3885 16.8196 17.0008 15.8025ZM5.64931 6.53619L8.3489 11.212C9.37749 9.13111 11.5216 7.7 14 7.7H23.2614C21.2454 4.74212 17.8496 2.8 14 2.8C10.6816 2.8 7.7002 4.2432 5.64931 6.53619ZM14 28C6.26801 28 0 21.7319 0 14C0 6.26801 6.26801 0 14 0C21.7319 0 28 6.26801 28 14C28 21.7319 21.7319 28 14 28Z" fill="white"/>
</svg>
