<svg width="30" height="30" viewBox="0 0 30 30" fill="none" xmlns="http://www.w3.org/2000/svg">
<path d="M15.0014 10.75C12.6534 10.75 10.7514 12.6527 10.7514 15C10.7514 17.3479 12.6541 19.25 15.0014 19.25C17.3493 19.25 19.2514 17.3473 19.2514 15C19.2514 12.6522 17.3487 10.75 15.0014 10.75ZM15.0014 7.91668C18.912 7.91668 22.0847 11.0859 22.0847 15C22.0847 18.9107 18.9155 22.0833 15.0014 22.0833C11.0907 22.0833 7.91805 18.9141 7.91805 15C7.91805 11.0893 11.0873 7.91668 15.0014 7.91668ZM24.2097 7.56131C24.2097 8.53896 23.4153 9.33217 22.4389 9.33217C21.4613 9.33217 20.6681 8.53774 20.6681 7.56131C20.6681 6.58487 21.4624 5.79168 22.4389 5.79168C23.414 5.79044 24.2097 6.58487 24.2097 7.56131ZM15.0014 3.66668C11.4959 3.66668 10.9245 3.67596 9.29404 3.74856C8.18321 3.80071 7.43858 3.95011 6.74672 4.21871C6.13189 4.45716 5.68837 4.7419 5.21582 5.21446C4.74144 5.68883 4.45722 6.13115 4.21973 6.74627C3.95051 7.43971 3.80115 8.18317 3.74993 9.29247C3.67662 10.8565 3.66805 11.4032 3.66805 15C3.66805 18.5056 3.67733 19.0769 3.74992 20.7072C3.8021 21.8176 3.95169 22.5633 4.21964 23.2535C4.45872 23.8692 4.74404 24.3137 5.21431 24.7841C5.69055 25.2597 6.1342 25.5448 6.74348 25.78C7.44376 26.0507 8.18792 26.2003 9.29383 26.2515C10.8579 26.3247 11.4045 26.3333 15.0014 26.3333C18.507 26.3333 19.0783 26.324 20.7086 26.2515C21.8166 26.1995 22.5629 26.0494 23.2549 25.7817C23.8689 25.5433 24.3149 25.257 24.7855 24.7871C25.2618 24.3101 25.5464 23.8675 25.7818 23.2568C26.0518 22.5591 26.2017 21.8139 26.2529 20.7076C26.3261 19.1435 26.3347 18.5968 26.3347 15C26.3347 11.4945 26.3254 10.9231 26.2529 9.29279C26.2007 8.18451 26.0507 7.43712 25.7827 6.74535C25.5448 6.13222 25.2591 5.68734 24.7869 5.21446C24.3117 4.73931 23.8706 4.45566 23.2551 4.21836C22.5622 3.94936 21.8176 3.79979 20.7089 3.74857C19.1449 3.67525 18.5982 3.66668 15.0014 3.66668ZM15.0014 0.833344C18.8499 0.833344 19.3305 0.84751 20.8416 0.918343C22.3491 0.988001 23.3775 1.22647 24.2806 1.57709C25.2143 1.93717 26.003 2.42355 26.7903 3.21098C27.5766 3.99842 28.0631 4.78939 28.4243 5.72084C28.7737 6.62279 29.0122 7.65223 29.0831 9.1598C29.1504 10.6709 29.1681 11.1514 29.1681 15C29.1681 18.8487 29.1539 19.3291 29.0831 20.8402C29.0134 22.3478 28.7737 23.3761 28.4243 24.2792C28.0642 25.213 27.5766 26.0016 26.7903 26.7891C26.003 27.5753 25.2108 28.0617 24.2806 28.4229C23.3775 28.7724 22.3491 29.0108 20.8416 29.0817C19.3305 29.149 18.8499 29.1667 15.0014 29.1667C11.1528 29.1667 10.6723 29.1525 9.16117 29.0817C7.6536 29.012 6.62652 28.7724 5.72222 28.4229C4.78957 28.0628 3.99978 27.5753 3.21235 26.7891C2.42493 26.0016 1.93972 25.2095 1.57847 24.2792C1.22784 23.3761 0.99055 22.3478 0.919717 20.8402C0.852425 19.3291 0.834717 18.8487 0.834717 15C0.834717 11.1514 0.848884 10.6709 0.919717 9.1598C0.98936 7.65105 1.22784 6.62397 1.57847 5.72084C1.93853 4.78821 2.42493 3.99842 3.21235 3.21098C3.99978 2.42355 4.79076 1.93834 5.72222 1.57709C6.62534 1.22647 7.65242 0.989177 9.16117 0.918343C10.6723 0.851052 11.1528 0.833344 15.0014 0.833344Z" fill="white"/>
</svg>
