<svg width="30" height="30" viewBox="0 0 30 30" fill="none" xmlns="http://www.w3.org/2000/svg">
<path d="M15.0014 0.833344C22.8639 0.833344 29.1681 7.20834 29.1681 15C29.1681 22.7917 22.7931 29.1667 15.0014 29.1667C7.20972 29.1667 0.834717 22.7917 0.834717 15C0.834717 7.20834 7.20972 0.833344 15.0014 0.833344ZM15.0014 3.66668C8.77453 3.66668 3.66805 8.77315 3.66805 15C3.66805 21.2268 8.77453 26.3333 15.0014 26.3333C21.2282 26.3333 26.3347 21.2268 26.3347 15C26.3347 8.74645 21.2724 3.66668 15.0014 3.66668ZM20.3139 21.5875C16.9847 19.5333 12.8056 19.1072 7.84603 20.2405C7.35256 20.3845 6.92638 20.0292 6.78472 19.6042C6.64305 19.1072 6.99722 18.6833 7.42222 18.5417C12.8056 17.3364 17.4806 17.8333 21.1639 20.1C21.6597 20.3125 21.7293 20.878 21.5192 21.3042C21.2359 21.728 20.74 21.8708 20.3139 21.5875ZM21.7293 17.7625C17.9056 15.425 12.0972 14.7167 7.63472 16.1333C7.06923 16.275 6.43055 15.9917 6.28888 15.425C6.14722 14.8583 6.43055 14.2197 6.99722 14.078C12.1681 12.5208 18.5431 13.3011 22.9347 15.9917C23.3609 16.2053 23.5722 16.9125 23.2192 17.4083C22.8639 17.9042 22.2264 18.1167 21.7293 17.7625ZM6.92638 11.8137C6.21805 12.025 5.50972 11.6 5.29722 10.9625C5.08472 10.253 5.50972 9.54584 6.14722 9.33217C11.1764 7.84467 19.4639 8.128 24.7067 11.2458C25.3431 11.6 25.5556 12.45 25.2014 13.0875C24.8484 13.5845 23.9972 13.7947 23.3609 13.4417C18.8264 10.75 11.2472 10.4667 6.92638 11.8137Z" fill="white"/>
</svg>
