<svg width="30" height="24" viewBox="0 0 30 24" fill="none" xmlns="http://www.w3.org/2000/svg">
<path d="M25.7764 4.90932C25.6685 4.48734 25.3632 4.16895 25.0136 4.07074C24.3924 3.89754 21.3764 3.49999 15.0014 3.49999C8.62638 3.49999 5.61107 3.89769 4.98735 4.07123C4.64099 4.16757 4.33575 4.48589 4.22639 4.90932C4.07225 5.51057 3.66805 8.02759 3.66805 12C3.66805 15.9723 4.07225 18.4895 4.22681 19.0924C4.33428 19.5127 4.63957 19.831 4.98772 19.9288C5.61106 20.1023 8.62638 20.5 15.0014 20.5C21.3764 20.5 24.3924 20.1025 25.0154 19.9288C25.3618 19.8325 25.6671 19.5141 25.7764 19.0907C25.9306 18.4895 26.3347 15.9667 26.3347 12C26.3347 8.03332 25.9306 5.51057 25.7764 4.90932ZM28.5209 4.20574C29.1681 6.72999 29.1681 12 29.1681 12C29.1681 12 29.1681 17.27 28.5209 19.7942C28.1604 21.1903 27.1082 22.2875 25.7746 22.6584C23.3542 23.3333 15.0014 23.3333 15.0014 23.3333C15.0014 23.3333 6.65352 23.3333 4.22819 22.6584C2.88956 22.2824 1.83745 21.1851 1.48179 19.7942C0.834717 17.27 0.834717 12 0.834717 12C0.834717 12 0.834717 6.72999 1.48179 4.20574C1.84238 2.80969 2.89451 1.71241 4.22819 1.3415C6.65352 0.666656 15.0014 0.666656 15.0014 0.666656C15.0014 0.666656 23.3542 0.666656 25.7746 1.3415C27.1132 1.71757 28.1654 2.81483 28.5209 4.20574ZM12.1681 16.9583V7.04166L20.6681 12L12.1681 16.9583Z" fill="white"/>
</svg>
